<?xml version="1.0" standalone="no"?>
<!DOCTYPE svg PUBLIC "-//W3C//DTD SVG 20010904//EN"
 "http://www.w3.org/TR/2001/REC-SVG-20010904/DTD/svg10.dtd">
<svg version="1.0" xmlns="http://www.w3.org/2000/svg"
 width="1000.000000pt" height="700.000000pt" viewBox="0 0 1000.000000 700.000000"
 preserveAspectRatio="xMidYMid meet">

<g transform="translate(0.000000,700.000000) scale(0.100000,-0.100000)"
fill="#000000" stroke="none">
<path d="M5043 4743 c15 -170 -9 -703 -34 -756 -14 -31 -28 -36 -118 -39 -81
-4 -92 -18 -119 -148 -28 -132 -59 -208 -101 -251 -30 -30 -50 -40 -113 -54
-49 -11 -92 -28 -118 -46 -38 -27 -43 -28 -87 -18 -169 37 -222 185 -105 294
39 37 46 49 45 79 -1 24 -11 49 -30 72 -58 72 -73 98 -73 123 0 38 25 69 75
92 91 43 520 518 492 545 -11 12 -77 -39 -272 -210 -216 -189 -266 -225 -350
-253 -54 -17 -64 -25 -99 -77 -21 -31 -49 -64 -62 -73 -23 -15 -28 -14 -87 15
-34 17 -93 58 -130 92 -37 33 -76 60 -86 60 -9 0 -39 -25 -66 -56 -57 -66
-262 -248 -373 -330 -71 -53 -87 -72 -181 -215 -126 -190 -214 -289 -323 -362
-245 -162 -326 -211 -458 -275 -162 -79 -202 -108 -253 -185 -20 -30 -54 -70
-77 -91 -68 -62 -257 -198 -435 -315 -93 -61 -162 -111 -153 -111 26 0 155 49
233 87 163 82 386 236 560 388 50 43 113 93 140 110 83 52 497 252 598 289 52
19 108 41 125 50 52 27 90 83 106 157 8 38 176 232 355 409 227 225 268 242
385 152 28 -20 65 -62 83 -92 43 -72 46 -153 8 -215 -54 -88 -84 -158 -75
-174 5 -9 35 -25 67 -35 130 -41 188 -116 164 -213 -33 -129 -172 -274 -388
-404 -239 -143 -754 -505 -802 -563 -16 -19 -6 -36 19 -36 29 0 132 57 301
167 366 238 461 283 633 304 50 6 97 16 104 21 6 6 12 23 12 39 0 59 55 104
381 316 325 211 446 309 505 412 120 205 306 411 428 471 130 64 246 41 246
-49 0 -18 -6 -26 -46 -60 -13 -11 -15 -25 -9 -81 6 -60 4 -73 -20 -119 -14
-29 -34 -96 -44 -149 -14 -77 -28 -116 -64 -183 -26 -47 -47 -98 -47 -112 0
-17 -13 -39 -39 -64 -24 -23 -48 -60 -60 -94 -13 -35 -42 -79 -76 -117 -30
-33 -55 -63 -55 -66 0 -3 12 -6 28 -6 49 0 131 59 255 184 142 142 166 154
269 139 77 -11 107 -4 151 33 47 40 89 54 159 54 73 0 112 -16 116 -48 9 -64
-116 -188 -269 -267 -130 -67 -179 -110 -381 -327 l-107 -115 -97 -23 c-286
-66 -669 -228 -631 -267 4 -3 74 15 156 41 256 79 298 87 490 93 l174 6 106
91 c134 115 244 193 346 244 77 38 112 51 235 87 93 28 168 83 330 241 135
130 164 154 216 174 49 18 72 21 134 17 94 -7 204 -46 208 -75 2 -13 -25 -50
-83 -112 -111 -121 -120 -153 -47 -166 46 -8 82 -30 82 -50 0 -20 -83 -108
-145 -154 -168 -124 -208 -147 -355 -205 -112 -43 -122 -51 -95 -72 29 -22
131 -12 235 23 47 16 182 77 300 137 118 60 229 113 245 118 51 15 190 -9 249
-43 91 -54 139 -68 234 -68 115 0 189 -10 617 -80 466 -77 465 -76 465 -57 0
9 -37 34 -92 63 -51 26 -111 59 -134 75 -32 22 -172 99 -393 215 -20 10 -29
10 -50 0 -34 -17 -38 -15 -157 66 -141 95 -289 221 -356 304 -68 84 -148 148
-413 325 -204 136 -219 149 -435 376 -102 106 -161 148 -225 158 -85 14 -186
-69 -281 -232 -73 -125 -202 -242 -329 -299 -89 -39 -100 -24 -33 44 110 113
149 177 167 278 16 84 50 150 125 243 80 98 83 89 -59 184 -140 93 -161 113
-241 218 -40 54 -90 110 -109 125 -20 15 -79 40 -131 55 -132 39 -146 48 -270
151 -110 92 -189 148 -209 148 -7 0 -8 -29 -2 -97z"/>
</g>
</svg>
